<svg width="19" height="13" viewBox="0 0 19 13" fill="none" xmlns="http://www.w3.org/2000/svg">
<path fill-rule="evenodd" clip-rule="evenodd" d="M0.5 1.5C0.5 1.23478 0.605357 0.98043 0.792893 0.792893C0.98043 0.605357 1.23478 0.5 1.5 0.5H17.5C17.7652 0.5 18.0196 0.605357 18.2071 0.792893C18.3946 0.98043 18.5 1.23478 18.5 1.5C18.5 1.76522 18.3946 2.01957 18.2071 2.20711C18.0196 2.39464 17.7652 2.5 17.5 2.5H1.5C1.23478 2.5 0.98043 2.39464 0.792893 2.20711C0.605357 2.01957 0.5 1.76522 0.5 1.5ZM3.5 6.5C3.5 6.23478 3.60536 5.98043 3.79289 5.79289C3.98043 5.60536 4.23478 5.5 4.5 5.5H14.5C14.7652 5.5 15.0196 5.60536 15.2071 5.79289C15.3946 5.98043 15.5 6.23478 15.5 6.5C15.5 6.76522 15.3946 7.01957 15.2071 7.20711C15.0196 7.39464 14.7652 7.5 14.5 7.5H4.5C4.23478 7.5 3.98043 7.39464 3.79289 7.20711C3.60536 7.01957 3.5 6.76522 3.5 6.5ZM6.5 11.5C6.5 11.2348 6.60536 10.9804 6.79289 10.7929C6.98043 10.6054 7.23478 10.5 7.5 10.5H11.5C11.7652 10.5 12.0196 10.6054 12.2071 10.7929C12.3946 10.9804 12.5 11.2348 12.5 11.5C12.5 11.7652 12.3946 12.0196 12.2071 12.2071C12.0196 12.3946 11.7652 12.5 11.5 12.5H7.5C7.23478 12.5 6.98043 12.3946 6.79289 12.2071C6.60536 12.0196 6.5 11.7652 6.5 11.5Z" fill="#14142B"/>
</svg>
