<svg width="19" height="17" viewBox="0 0 19 17" fill="none" xmlns="http://www.w3.org/2000/svg">
<path fill-rule="evenodd" clip-rule="evenodd" d="M9.20679 0.793031C9.39426 0.980558 9.49957 1.23487 9.49957 1.50003C9.49957 1.76519 9.39426 2.0195 9.20679 2.20703L3.91379 7.50003H17.4998C17.765 7.50003 18.0194 7.60539 18.2069 7.79292C18.3944 7.98046 18.4998 8.23481 18.4998 8.50003C18.4998 8.76525 18.3944 9.0196 18.2069 9.20714C18.0194 9.39467 17.765 9.50003 17.4998 9.50003H3.91379L9.20679 14.793C9.38894 14.9816 9.48974 15.2342 9.48746 15.4964C9.48518 15.7586 9.38001 16.0094 9.1946 16.1948C9.0092 16.3803 8.75838 16.4854 8.49619 16.4877C8.23399 16.49 7.98139 16.3892 7.79279 16.207L0.792786 9.20703C0.605315 9.0195 0.5 8.76519 0.5 8.50003C0.5 8.23487 0.605315 7.98056 0.792786 7.79303L7.79279 0.793031C7.98031 0.60556 8.23462 0.500244 8.49979 0.500244C8.76495 0.500244 9.01926 0.60556 9.20679 0.793031V0.793031Z" fill="#14142B"/>
</svg>
